<svg width="18" height="17" xmlns="http://www.w3.org/2000/svg" viewBox="0 0 600 554.8">
  <defs>
    <style>
      .a {
        fill: #fff;
      }
    </style>
  </defs>
  <path class="a" d="M598.22,332.87l-31.47-96.7a13.86,13.86,0,0,0-.77-2.6L502.85,39.22a25.1,25.1,0,0,0-24-17.12A24.69,24.69,0,0,0,455.2,39.36L395,224.56H205.08L144.81,39.36A24.68,24.68,0,0,0,121.23,22.1h-.14a25.19,25.19,0,0,0-23.9,17.28L34,234c0,.18-.14.32-.19.49l-32,98.43a35.91,35.91,0,0,0,13.05,40.2L291.61,574.21a14.17,14.17,0,0,0,16.73-.09h0l276.85-201A35.9,35.9,0,0,0,598.22,332.87ZM184.47,253l77.16,237.46L76.41,253Zm154,237.52,74-227.67,3.19-9.85H523.79L356.22,467.65ZM479.13,57.59l54.22,167H424.83Zm-93.3,195.29L332.08,418.31,300,516.83l-85.7-264ZM121,57.59l54.32,167H66.84ZM31.47,350.18a7.63,7.63,0,0,1-2.76-8.55l23.79-73.1L227,492.2Zm537.08,0L373,492.15l.66-.85L547.51,268.53l23.78,73.06a7.63,7.63,0,0,1-2.74,8.57Z" transform="translate(0 -22.1)"/>
</svg>
